<svg xmlns="http://www.w3.org/2000/svg" xmlns:xlink="http://www.w3.org/1999/xlink" width="500" zoomAndPan="magnify" viewBox="0 0 375 374.999991" height="500" preserveAspectRatio="xMidYMid meet" version="1.2"><defs><clipPath id="74986da5e3"><path d="M 197.175781 150.765625 L 212.175781 150.765625 L 212.175781 164.265625 L 197.175781 164.265625 Z M 197.175781 150.765625 "/></clipPath></defs><g id="4491c81065"><rect x="0" width="375" y="0" height="374.999991" style="fill:#ffffff;fill-opacity:1;stroke:none;"/><rect x="0" width="375" y="0" height="374.999991" style="fill:#dfc6aa;fill-opacity:1;stroke:none;"/><g clip-rule="nonzero" clip-path="url(#74986da5e3)"><path style=" stroke:none;fill-rule:nonzero;fill:#b66d38;fill-opacity:1;" d="M 211.699219 156.191406 C 211.695312 156.183594 211.691406 156.179688 211.683594 156.175781 C 211.355469 155.988281 211.003906 155.894531 210.640625 155.894531 C 210.167969 155.894531 209.6875 156.0625 209.222656 156.390625 C 209.183594 156.417969 209.140625 156.433594 209.09375 156.433594 C 209.019531 156.433594 208.953125 156.398438 208.910156 156.339844 C 208.839844 156.238281 208.863281 156.097656 208.964844 156.027344 C 209.523438 155.632812 210.039062 155.441406 210.542969 155.441406 C 210.789062 155.441406 211.039062 155.484375 211.308594 155.582031 C 211.320312 155.585938 211.335938 155.582031 211.34375 155.570312 C 211.351562 155.558594 211.554688 155.296875 211.445312 154.660156 C 211.398438 154.429688 211.308594 154.246094 211.183594 154.105469 C 210.933594 153.789062 210.679688 153.722656 210.507812 153.722656 C 210.40625 153.722656 210.339844 153.746094 210.335938 153.75 C 210.328125 153.75 210.324219 153.753906 210.320312 153.761719 C 210.078125 154.144531 209.792969 154.402344 209.277344 154.710938 C 209.242188 154.730469 209.203125 154.742188 209.164062 154.742188 C 209.085938 154.742188 209.011719 154.699219 208.972656 154.632812 C 208.910156 154.527344 208.945312 154.390625 209.050781 154.328125 C 209.671875 153.953125 209.921875 153.710938 210.070312 153.316406 C 210.144531 153.039062 210.050781 152.664062 209.851562 152.445312 L 209.8125 152.398438 C 209.585938 152.117188 209.167969 151.601562 208.105469 151.328125 C 207.957031 151.28125 207.808594 151.257812 207.660156 151.257812 C 207.226562 151.257812 206.941406 151.453125 206.929688 151.460938 C 206.917969 151.46875 206.914062 151.484375 206.917969 151.496094 C 206.960938 151.621094 207.089844 152 206.960938 152.421875 C 206.929688 152.515625 206.84375 152.578125 206.746094 152.578125 C 206.722656 152.578125 206.703125 152.574219 206.679688 152.566406 C 206.5625 152.53125 206.496094 152.40625 206.535156 152.289062 C 206.621094 152.007812 206.601562 151.761719 206.476562 151.535156 C 206.3125 151.234375 206.089844 151.035156 205.789062 150.921875 C 205.5 150.800781 205.046875 150.773438 204.863281 150.765625 C 203.683594 150.773438 202.839844 150.847656 201.777344 151.230469 C 201.640625 151.273438 201.535156 151.363281 201.476562 151.480469 C 201.410156 151.621094 201.410156 151.792969 201.480469 151.980469 C 201.480469 151.984375 201.484375 151.992188 201.488281 152.003906 C 201.570312 152.246094 201.652344 152.460938 201.730469 152.648438 C 201.75 152.703125 201.75 152.761719 201.726562 152.820312 C 201.707031 152.875 201.664062 152.917969 201.609375 152.9375 C 201.582031 152.949219 201.550781 152.957031 201.523438 152.957031 C 201.433594 152.957031 201.351562 152.902344 201.316406 152.816406 C 201.253906 152.664062 201.054688 152.167969 201.050781 152.160156 C 201.046875 152.152344 200.957031 151.921875 200.660156 151.921875 C 200.433594 151.921875 200.160156 152.054688 199.835938 152.316406 C 199.40625 152.648438 199.1875 152.949219 199.1875 153.210938 C 199.183594 153.394531 199.292969 153.484375 199.300781 153.492188 C 199.390625 153.546875 199.871094 153.914062 200.070312 154.136719 C 200.15625 154.230469 200.152344 154.367188 200.066406 154.453125 C 200.023438 154.492188 199.96875 154.515625 199.910156 154.515625 C 199.847656 154.515625 199.792969 154.488281 199.75 154.445312 C 199.25 153.925781 198.84375 153.671875 198.5 153.671875 C 198.453125 153.671875 198.40625 153.675781 198.359375 153.6875 C 198.226562 153.71875 198.011719 153.871094 197.882812 154.070312 C 197.425781 154.667969 197.277344 155.132812 197.234375 155.929688 C 197.207031 156.40625 197.335938 156.871094 197.480469 157.074219 C 197.683594 157.359375 197.890625 157.519531 197.96875 157.578125 C 197.96875 157.578125 198.03125 157.617188 198.054688 157.597656 C 198.257812 157.4375 198.492188 157.355469 198.777344 157.355469 C 198.949219 157.355469 199.140625 157.382812 199.351562 157.441406 C 199.410156 157.457031 199.457031 157.492188 199.484375 157.542969 C 199.511719 157.59375 199.519531 157.660156 199.503906 157.714844 C 199.476562 157.8125 199.386719 157.875 199.289062 157.875 C 199.269531 157.875 199.246094 157.875 199.226562 157.867188 C 199.082031 157.824219 198.941406 157.804688 198.820312 157.804688 C 198.699219 157.800781 198.476562 157.8125 198.375 157.925781 C 198.371094 157.929688 198.367188 157.933594 198.363281 157.941406 C 198.363281 157.949219 198.339844 158.492188 199.113281 158.765625 C 199.761719 159 200.097656 159.007812 201.507812 159.007812 C 201.714844 159.007812 201.945312 159.003906 202.226562 159 C 202.296875 159 202.398438 158.964844 202.460938 158.886719 C 202.511719 158.832031 202.53125 158.761719 202.523438 158.6875 C 202.523438 158.566406 202.542969 158.457031 202.582031 158.34375 C 202.75 157.871094 203.089844 157.558594 203.683594 157.339844 C 203.710938 157.332031 203.734375 157.324219 203.761719 157.324219 C 203.855469 157.324219 203.9375 157.382812 203.972656 157.472656 C 203.992188 157.527344 203.988281 157.589844 203.964844 157.640625 C 203.941406 157.695312 203.894531 157.738281 203.839844 157.757812 C 203.386719 157.925781 203.105469 158.167969 203.007812 158.472656 C 202.84375 158.988281 203.226562 159.554688 203.230469 159.5625 C 204.363281 160.671875 206.570312 160.703125 206.679688 160.394531 C 206.773438 160.167969 206.835938 159.804688 206.613281 159.371094 C 206.257812 158.695312 205.0625 158.652344 205.050781 158.652344 C 204.929688 158.648438 204.832031 158.546875 204.835938 158.425781 C 204.839844 158.304688 204.9375 158.207031 205.0625 158.207031 C 205.121094 158.207031 206.53125 158.253906 207.007812 159.164062 C 207.265625 159.660156 207.230469 160.097656 207.152344 160.382812 C 207.132812 160.457031 207.148438 160.535156 207.1875 160.585938 C 207.214844 160.621094 207.265625 160.660156 207.351562 160.660156 C 207.351562 160.660156 208.132812 160.664062 208.769531 160.53125 C 208.859375 160.515625 208.941406 160.578125 208.953125 160.664062 C 208.964844 160.75 208.90625 160.832031 208.820312 160.847656 C 207.882812 160.992188 207.0625 161.066406 206.351562 161.066406 C 205.488281 161.066406 204.785156 160.960938 204.226562 160.746094 C 204.238281 161.136719 204.371094 161.480469 204.613281 161.761719 C 204.617188 161.765625 204.617188 161.765625 204.617188 161.769531 C 204.699219 161.855469 204.820312 161.976562 204.933594 162.074219 C 205.015625 162.152344 205.417969 162.410156 205.523438 162.472656 C 205.722656 162.589844 206.640625 163.15625 206.730469 163.210938 C 207.132812 163.472656 207.253906 163.753906 207.265625 163.769531 C 207.308594 163.828125 207.332031 163.996094 207.332031 163.996094 C 207.367188 164.148438 207.503906 164.261719 207.667969 164.261719 C 207.855469 164.261719 208.011719 164.105469 208.011719 163.914062 C 208.011719 163.914062 208.015625 163.527344 207.867188 163.261719 C 207.839844 163.210938 207.523438 162.691406 207.15625 162.410156 C 207.042969 162.320312 206.78125 162.128906 206.78125 162.128906 C 206.75 162.109375 206.742188 162.070312 206.761719 162.039062 C 206.78125 162.007812 206.820312 161.996094 206.851562 162.015625 C 206.851562 162.015625 207.628906 162.558594 208.113281 162.425781 C 208.828125 162.226562 209.761719 161.757812 209.761719 160.699219 C 209.761719 160.542969 209.746094 160.394531 209.714844 160.257812 C 209.8125 160.203125 209.914062 160.144531 210.011719 160.074219 C 210.125 159.984375 210.160156 159.871094 210.167969 159.789062 C 210.179688 159.675781 210.148438 159.554688 210.082031 159.476562 L 209.613281 158.871094 L 209.605469 158.863281 C 209.507812 158.738281 209.378906 158.714844 209.289062 158.714844 C 209.214844 158.714844 209.152344 158.730469 209.121094 158.746094 C 208.957031 158.828125 208.78125 158.894531 208.605469 158.945312 C 208.488281 158.980469 208.359375 158.910156 208.328125 158.796875 C 208.3125 158.738281 208.316406 158.675781 208.347656 158.625 C 208.375 158.574219 208.421875 158.535156 208.480469 158.519531 C 208.882812 158.402344 209.613281 158.078125 209.960938 157.230469 C 209.996094 157.148438 210.074219 157.09375 210.167969 157.09375 C 210.195312 157.09375 210.222656 157.097656 210.25 157.109375 C 210.363281 157.15625 210.417969 157.285156 210.375 157.398438 C 210.261719 157.671875 210.109375 157.917969 209.917969 158.136719 C 209.832031 158.277344 209.84375 158.421875 209.953125 158.585938 L 210.261719 158.984375 C 210.265625 158.988281 210.273438 158.992188 210.277344 158.996094 C 210.28125 158.996094 210.402344 159.03125 210.574219 159.03125 C 210.804688 159.03125 211.132812 158.96875 211.375 158.667969 C 211.972656 157.953125 212.003906 157.335938 212.023438 156.882812 C 212.027344 156.839844 212.027344 156.796875 212.03125 156.75 C 212.003906 156.417969 211.792969 156.25 211.699219 156.191406 Z M 202.550781 155.894531 C 202.261719 156.179688 201.945312 156.386719 201.605469 156.515625 C 201.601562 156.519531 201.601562 156.519531 201.597656 156.523438 C 201.441406 156.609375 201.386719 156.722656 201.417969 156.914062 L 201.542969 157.640625 C 201.554688 157.699219 201.542969 157.757812 201.511719 157.808594 C 201.476562 157.855469 201.425781 157.890625 201.367188 157.902344 C 201.25 157.925781 201.128906 157.84375 201.105469 157.726562 L 200.96875 156.941406 C 200.925781 156.773438 200.765625 156.6875 200.664062 156.675781 C 200.660156 156.675781 200.65625 156.671875 200.648438 156.671875 C 199.542969 156.632812 198.65625 155.917969 198.644531 155.910156 C 198.601562 155.871094 198.570312 155.816406 198.566406 155.757812 C 198.558594 155.699219 198.578125 155.640625 198.613281 155.597656 C 198.65625 155.542969 198.71875 155.515625 198.789062 155.515625 C 198.839844 155.515625 198.886719 155.53125 198.929688 155.566406 C 198.960938 155.59375 199.761719 156.234375 200.71875 156.234375 C 201.285156 156.234375 201.796875 156.011719 202.234375 155.578125 C 202.320312 155.496094 202.46875 155.496094 202.550781 155.582031 C 202.59375 155.621094 202.617188 155.679688 202.613281 155.738281 C 202.613281 155.796875 202.589844 155.855469 202.550781 155.894531 Z M 202.84375 154.347656 C 202.144531 154.347656 201.648438 154.777344 201.628906 154.796875 C 201.585938 154.832031 201.535156 154.851562 201.480469 154.851562 C 201.414062 154.851562 201.355469 154.824219 201.3125 154.777344 C 201.273438 154.730469 201.253906 154.675781 201.257812 154.617188 C 201.261719 154.554688 201.289062 154.5 201.332031 154.460938 C 201.636719 154.195312 202.195312 153.90625 202.847656 153.90625 C 203.316406 153.90625 203.765625 154.058594 204.183594 154.351562 C 204.230469 154.386719 204.265625 154.4375 204.273438 154.496094 C 204.285156 154.554688 204.269531 154.613281 204.238281 154.660156 C 204.195312 154.71875 204.128906 154.753906 204.054688 154.753906 C 204.007812 154.753906 203.964844 154.742188 203.925781 154.714844 C 203.582031 154.472656 203.21875 154.347656 202.84375 154.347656 Z M 208 157.507812 C 207.960938 157.550781 207.90625 157.582031 207.847656 157.585938 C 206.886719 157.667969 206.171875 157.457031 205.738281 156.960938 C 205.671875 156.882812 205.609375 156.796875 205.554688 156.703125 C 205.554688 156.699219 205.550781 156.699219 205.550781 156.695312 C 205.492188 156.636719 205.414062 156.605469 205.3125 156.601562 C 205.277344 156.601562 205.242188 156.605469 205.203125 156.609375 C 205.195312 156.609375 204.917969 156.667969 204.648438 156.660156 C 204.03125 156.640625 203.636719 156.351562 203.621094 156.339844 C 203.523438 156.269531 203.5 156.128906 203.574219 156.027344 C 203.617188 155.96875 203.6875 155.9375 203.761719 155.9375 C 203.804688 155.941406 203.847656 155.953125 203.886719 155.980469 C 203.898438 155.988281 204.195312 156.1875 204.660156 156.214844 C 204.882812 156.226562 205.105469 156.15625 205.132812 156.144531 C 205.300781 156.074219 205.296875 155.882812 205.289062 155.808594 C 205.25 155.378906 205.328125 155.035156 205.332031 155.019531 C 205.355469 154.902344 205.476562 154.824219 205.597656 154.851562 C 205.714844 154.878906 205.792969 155 205.765625 155.117188 C 205.761719 155.128906 205.558594 156.082031 206.074219 156.667969 C 206.414062 157.054688 207 157.214844 207.808594 157.140625 C 207.933594 157.132812 208.039062 157.222656 208.050781 157.34375 C 208.054688 157.402344 208.039062 157.460938 208 157.507812 Z M 207.824219 154.058594 C 207.425781 154.441406 207.230469 155.050781 207.324219 155.609375 C 207.34375 155.71875 207.269531 155.820312 207.160156 155.839844 C 207.148438 155.84375 207.136719 155.84375 207.125 155.84375 C 207.027344 155.84375 206.941406 155.773438 206.929688 155.675781 C 206.855469 155.078125 207.050781 154.527344 207.050781 154.519531 C 207.0625 154.488281 207.066406 154.460938 207.054688 154.4375 C 207.042969 154.410156 207.019531 154.398438 206.996094 154.386719 C 206.398438 154.324219 205.320312 154.09375 204.820312 153.3125 C 204.746094 153.199219 204.542969 153.257812 204.214844 153.257812 C 202.75 153.253906 202.539062 152.3125 202.53125 152.273438 C 202.523438 152.21875 202.53125 152.167969 202.5625 152.121094 C 202.59375 152.078125 202.636719 152.046875 202.691406 152.035156 C 202.703125 152.035156 202.714844 152.03125 202.730469 152.03125 C 202.824219 152.03125 202.90625 152.097656 202.925781 152.191406 C 202.933594 152.21875 203.09375 152.855469 204.21875 152.855469 C 204.273438 152.855469 204.332031 152.855469 204.390625 152.851562 C 204.519531 152.835938 204.59375 152.769531 204.613281 152.644531 C 204.632812 152.210938 204.957031 151.886719 205.148438 151.765625 C 205.179688 151.742188 205.21875 151.734375 205.257812 151.734375 C 205.324219 151.734375 205.386719 151.765625 205.425781 151.824219 C 205.453125 151.871094 205.464844 151.921875 205.453125 151.976562 C 205.441406 152.027344 205.410156 152.074219 205.367188 152.101562 C 205.34375 152.117188 204.859375 152.441406 205.066406 152.917969 C 205.433594 153.78125 206.695312 153.964844 207.21875 154.003906 C 207.285156 154 207.363281 153.960938 207.425781 153.894531 C 207.46875 153.84375 207.507812 153.804688 207.546875 153.769531 C 208.058594 153.277344 208.085938 152.800781 208.089844 152.78125 C 208.09375 152.671875 208.1875 152.585938 208.296875 152.589844 C 208.40625 152.59375 208.492188 152.6875 208.488281 152.796875 C 208.488281 152.824219 208.457031 153.453125 207.824219 154.058594 Z M 207.824219 154.058594 "/></g><g style="fill:#21302b;fill-opacity:1;"><g transform="translate(129.076393, 226.117554)"><path style="stroke:none" d="M 1.703125 0.03125 C 1.429688 0.03125 1.1875 -0.0078125 0.96875 -0.09375 C 0.757812 -0.1875 0.59375 -0.316406 0.46875 -0.484375 C 0.34375 -0.660156 0.28125 -0.867188 0.28125 -1.109375 L 1.109375 -1.109375 C 1.117188 -0.953125 1.171875 -0.828125 1.265625 -0.734375 C 1.367188 -0.640625 1.507812 -0.59375 1.6875 -0.59375 C 1.863281 -0.59375 2.003906 -0.632812 2.109375 -0.71875 C 2.210938 -0.8125 2.265625 -0.925781 2.265625 -1.0625 C 2.265625 -1.175781 2.226562 -1.269531 2.15625 -1.34375 C 2.09375 -1.414062 2.007812 -1.472656 1.90625 -1.515625 C 1.800781 -1.554688 1.65625 -1.601562 1.46875 -1.65625 C 1.21875 -1.726562 1.015625 -1.800781 0.859375 -1.875 C 0.703125 -1.945312 0.566406 -2.054688 0.453125 -2.203125 C 0.347656 -2.347656 0.296875 -2.539062 0.296875 -2.78125 C 0.296875 -3.007812 0.347656 -3.207031 0.453125 -3.375 C 0.566406 -3.539062 0.726562 -3.664062 0.9375 -3.75 C 1.144531 -3.84375 1.378906 -3.890625 1.640625 -3.890625 C 2.035156 -3.890625 2.359375 -3.789062 2.609375 -3.59375 C 2.859375 -3.40625 2.992188 -3.140625 3.015625 -2.796875 L 2.171875 -2.796875 C 2.160156 -2.929688 2.101562 -3.039062 2 -3.125 C 1.894531 -3.207031 1.757812 -3.25 1.59375 -3.25 C 1.4375 -3.25 1.3125 -3.210938 1.21875 -3.140625 C 1.132812 -3.066406 1.09375 -2.957031 1.09375 -2.8125 C 1.09375 -2.707031 1.125 -2.617188 1.1875 -2.546875 C 1.257812 -2.484375 1.34375 -2.429688 1.4375 -2.390625 C 1.539062 -2.347656 1.6875 -2.296875 1.875 -2.234375 C 2.125 -2.160156 2.328125 -2.085938 2.484375 -2.015625 C 2.640625 -1.941406 2.773438 -1.832031 2.890625 -1.6875 C 3.003906 -1.539062 3.0625 -1.347656 3.0625 -1.109375 C 3.0625 -0.898438 3.007812 -0.707031 2.90625 -0.53125 C 2.800781 -0.363281 2.644531 -0.226562 2.4375 -0.125 C 2.226562 -0.0195312 1.984375 0.03125 1.703125 0.03125 Z M 1.703125 0.03125 "/></g></g><g style="fill:#21302b;fill-opacity:1;"><g transform="translate(135.065874, 226.117554)"><path style="stroke:none" d="M 2.15625 0.03125 C 1.800781 0.03125 1.472656 -0.0507812 1.171875 -0.21875 C 0.867188 -0.382812 0.628906 -0.613281 0.453125 -0.90625 C 0.273438 -1.207031 0.1875 -1.550781 0.1875 -1.9375 C 0.1875 -2.300781 0.273438 -2.632812 0.453125 -2.9375 C 0.628906 -3.238281 0.867188 -3.472656 1.171875 -3.640625 C 1.472656 -3.804688 1.800781 -3.890625 2.15625 -3.890625 C 2.519531 -3.890625 2.851562 -3.804688 3.15625 -3.640625 C 3.457031 -3.472656 3.691406 -3.238281 3.859375 -2.9375 C 4.035156 -2.632812 4.125 -2.300781 4.125 -1.9375 C 4.125 -1.550781 4.035156 -1.207031 3.859375 -0.90625 C 3.691406 -0.613281 3.457031 -0.382812 3.15625 -0.21875 C 2.851562 -0.0507812 2.519531 0.03125 2.15625 0.03125 Z M 2.15625 -0.65625 C 2.394531 -0.65625 2.597656 -0.707031 2.765625 -0.8125 C 2.941406 -0.914062 3.078125 -1.0625 3.171875 -1.25 C 3.273438 -1.445312 3.328125 -1.675781 3.328125 -1.9375 C 3.328125 -2.1875 3.273438 -2.40625 3.171875 -2.59375 C 3.078125 -2.789062 2.941406 -2.941406 2.765625 -3.046875 C 2.597656 -3.148438 2.394531 -3.203125 2.15625 -3.203125 C 1.925781 -3.203125 1.722656 -3.148438 1.546875 -3.046875 C 1.367188 -2.941406 1.226562 -2.789062 1.125 -2.59375 C 1.03125 -2.40625 0.984375 -2.1875 0.984375 -1.9375 C 0.984375 -1.675781 1.03125 -1.445312 1.125 -1.25 C 1.226562 -1.0625 1.367188 -0.914062 1.546875 -0.8125 C 1.722656 -0.707031 1.925781 -0.65625 2.15625 -0.65625 Z M 2.15625 -0.65625 "/></g></g><g style="fill:#21302b;fill-opacity:1;"><g transform="translate(142.023355, 226.117554)"><path style="stroke:none" d="M 0.1875 -1.921875 C 0.1875 -2.296875 0.269531 -2.632812 0.4375 -2.9375 C 0.613281 -3.238281 0.847656 -3.472656 1.140625 -3.640625 C 1.441406 -3.804688 1.773438 -3.890625 2.140625 -3.890625 C 2.566406 -3.890625 2.941406 -3.78125 3.265625 -3.5625 C 3.585938 -3.34375 3.8125 -3.035156 3.9375 -2.640625 L 3.0625 -2.640625 C 2.96875 -2.828125 2.84375 -2.96875 2.6875 -3.0625 C 2.53125 -3.15625 2.347656 -3.203125 2.140625 -3.203125 C 1.910156 -3.203125 1.707031 -3.144531 1.53125 -3.03125 C 1.363281 -2.925781 1.226562 -2.78125 1.125 -2.59375 C 1.03125 -2.40625 0.984375 -2.179688 0.984375 -1.921875 C 0.984375 -1.671875 1.03125 -1.445312 1.125 -1.25 C 1.226562 -1.0625 1.363281 -0.914062 1.53125 -0.8125 C 1.707031 -0.707031 1.910156 -0.65625 2.140625 -0.65625 C 2.347656 -0.65625 2.53125 -0.703125 2.6875 -0.796875 C 2.84375 -0.890625 2.96875 -1.023438 3.0625 -1.203125 L 3.9375 -1.203125 C 3.8125 -0.816406 3.585938 -0.515625 3.265625 -0.296875 C 2.941406 -0.078125 2.566406 0.03125 2.140625 0.03125 C 1.773438 0.03125 1.441406 -0.0507812 1.140625 -0.21875 C 0.847656 -0.382812 0.613281 -0.613281 0.4375 -0.90625 C 0.269531 -1.207031 0.1875 -1.546875 0.1875 -1.921875 Z M 0.1875 -1.921875 "/></g></g><g style="fill:#21302b;fill-opacity:1;"><g transform="translate(148.88734, 226.117554)"><path style="stroke:none" d="M 1.15625 -3.84375 L 1.15625 0 L 0.375 0 L 0.375 -3.84375 Z M 1.15625 -3.84375 "/></g></g><g style="fill:#21302b;fill-opacity:1;"><g transform="translate(153.056325, 226.117554)"><path style="stroke:none" d="M 1.15625 -3.21875 L 1.15625 -2.25 L 2.4375 -2.25 L 2.4375 -1.640625 L 1.15625 -1.640625 L 1.15625 -0.625 L 2.609375 -0.625 L 2.609375 0 L 0.375 0 L 0.375 -3.84375 L 2.609375 -3.84375 L 2.609375 -3.21875 Z M 1.15625 -3.21875 "/></g></g><g style="fill:#21302b;fill-opacity:1;"><g transform="translate(158.622311, 226.117554)"><path style="stroke:none" d="M 1.71875 -3.84375 C 2.125 -3.84375 2.476562 -3.757812 2.78125 -3.59375 C 3.09375 -3.4375 3.332031 -3.210938 3.5 -2.921875 C 3.664062 -2.628906 3.75 -2.289062 3.75 -1.90625 C 3.75 -1.53125 3.664062 -1.195312 3.5 -0.90625 C 3.332031 -0.613281 3.09375 -0.390625 2.78125 -0.234375 C 2.476562 -0.078125 2.125 0 1.71875 0 L 0.375 0 L 0.375 -3.84375 Z M 1.6875 -0.65625 C 2.09375 -0.65625 2.40625 -0.765625 2.625 -0.984375 C 2.84375 -1.203125 2.953125 -1.507812 2.953125 -1.90625 C 2.953125 -2.3125 2.84375 -2.625 2.625 -2.84375 C 2.40625 -3.070312 2.09375 -3.1875 1.6875 -3.1875 L 1.15625 -3.1875 L 1.15625 -0.65625 Z M 1.6875 -0.65625 "/></g></g><g style="fill:#21302b;fill-opacity:1;"><g transform="translate(165.205798, 226.117554)"><path style="stroke:none" d="M 2.734375 -0.734375 L 1.203125 -0.734375 L 0.953125 0 L 0.140625 0 L 1.53125 -3.84375 L 2.421875 -3.84375 L 3.796875 0 L 2.984375 0 Z M 2.53125 -1.34375 L 1.96875 -2.953125 L 1.40625 -1.34375 Z M 2.53125 -1.34375 "/></g></g><g style="fill:#21302b;fill-opacity:1;"><g transform="translate(171.78378, 226.117554)"><path style="stroke:none" d="M 1.71875 -3.84375 C 2.125 -3.84375 2.476562 -3.757812 2.78125 -3.59375 C 3.09375 -3.4375 3.332031 -3.210938 3.5 -2.921875 C 3.664062 -2.628906 3.75 -2.289062 3.75 -1.90625 C 3.75 -1.53125 3.664062 -1.195312 3.5 -0.90625 C 3.332031 -0.613281 3.09375 -0.390625 2.78125 -0.234375 C 2.476562 -0.078125 2.125 0 1.71875 0 L 0.375 0 L 0.375 -3.84375 Z M 1.6875 -0.65625 C 2.09375 -0.65625 2.40625 -0.765625 2.625 -0.984375 C 2.84375 -1.203125 2.953125 -1.507812 2.953125 -1.90625 C 2.953125 -2.3125 2.84375 -2.625 2.625 -2.84375 C 2.40625 -3.070312 2.09375 -3.1875 1.6875 -3.1875 L 1.15625 -3.1875 L 1.15625 -0.65625 Z M 1.6875 -0.65625 "/></g></g><g style="fill:#21302b;fill-opacity:1;"><g transform="translate(178.367267, 226.117554)"><path style="stroke:none" d="M 1.15625 -3.21875 L 1.15625 -2.25 L 2.4375 -2.25 L 2.4375 -1.640625 L 1.15625 -1.640625 L 1.15625 -0.625 L 2.609375 -0.625 L 2.609375 0 L 0.375 0 L 0.375 -3.84375 L 2.609375 -3.84375 L 2.609375 -3.21875 Z M 1.15625 -3.21875 "/></g></g><g style="fill:#21302b;fill-opacity:1;"><g transform="translate(183.933253, 226.117554)"><path style="stroke:none" d=""/></g></g><g style="fill:#21302b;fill-opacity:1;"><g transform="translate(187.882234, 226.117554)"><path style="stroke:none" d="M 2.5625 -1.96875 C 2.769531 -1.925781 2.941406 -1.816406 3.078125 -1.640625 C 3.222656 -1.460938 3.296875 -1.265625 3.296875 -1.046875 C 3.296875 -0.835938 3.242188 -0.65625 3.140625 -0.5 C 3.046875 -0.34375 2.898438 -0.21875 2.703125 -0.125 C 2.515625 -0.0390625 2.289062 0 2.03125 0 L 0.375 0 L 0.375 -3.84375 L 1.96875 -3.84375 C 2.226562 -3.84375 2.453125 -3.800781 2.640625 -3.71875 C 2.828125 -3.632812 2.96875 -3.515625 3.0625 -3.359375 C 3.164062 -3.210938 3.21875 -3.039062 3.21875 -2.84375 C 3.21875 -2.625 3.15625 -2.4375 3.03125 -2.28125 C 2.914062 -2.132812 2.757812 -2.03125 2.5625 -1.96875 Z M 1.15625 -2.25 L 1.859375 -2.25 C 2.035156 -2.25 2.171875 -2.289062 2.265625 -2.375 C 2.367188 -2.457031 2.421875 -2.578125 2.421875 -2.734375 C 2.421875 -2.890625 2.367188 -3.007812 2.265625 -3.09375 C 2.171875 -3.175781 2.035156 -3.21875 1.859375 -3.21875 L 1.15625 -3.21875 Z M 1.921875 -0.625 C 2.109375 -0.625 2.253906 -0.664062 2.359375 -0.75 C 2.460938 -0.84375 2.515625 -0.972656 2.515625 -1.140625 C 2.515625 -1.296875 2.457031 -1.421875 2.34375 -1.515625 C 2.238281 -1.609375 2.09375 -1.65625 1.90625 -1.65625 L 1.15625 -1.65625 L 1.15625 -0.625 Z M 1.921875 -0.625 "/></g></g><g style="fill:#21302b;fill-opacity:1;"><g transform="translate(194.058716, 226.117554)"><path style="stroke:none" d="M 2.359375 0 L 1.515625 -1.5 L 1.15625 -1.5 L 1.15625 0 L 0.375 0 L 0.375 -3.84375 L 1.828125 -3.84375 C 2.117188 -3.84375 2.367188 -3.789062 2.578125 -3.6875 C 2.785156 -3.582031 2.941406 -3.4375 3.046875 -3.25 C 3.148438 -3.070312 3.203125 -2.875 3.203125 -2.65625 C 3.203125 -2.40625 3.128906 -2.175781 2.984375 -1.96875 C 2.835938 -1.769531 2.617188 -1.632812 2.328125 -1.5625 L 3.25 0 Z M 1.15625 -2.078125 L 1.796875 -2.078125 C 2.003906 -2.078125 2.160156 -2.125 2.265625 -2.21875 C 2.367188 -2.320312 2.421875 -2.460938 2.421875 -2.640625 C 2.421875 -2.816406 2.367188 -2.953125 2.265625 -3.046875 C 2.160156 -3.148438 2.003906 -3.203125 1.796875 -3.203125 L 1.15625 -3.203125 Z M 1.15625 -2.078125 "/></g></g><g style="fill:#21302b;fill-opacity:1;"><g transform="translate(200.224197, 226.117554)"><path style="stroke:none" d="M 2.734375 -0.734375 L 1.203125 -0.734375 L 0.953125 0 L 0.140625 0 L 1.53125 -3.84375 L 2.421875 -3.84375 L 3.796875 0 L 2.984375 0 Z M 2.53125 -1.34375 L 1.96875 -2.953125 L 1.40625 -1.34375 Z M 2.53125 -1.34375 "/></g></g><g style="fill:#21302b;fill-opacity:1;"><g transform="translate(206.80218, 226.117554)"><path style="stroke:none" d="M 1.703125 0.03125 C 1.429688 0.03125 1.1875 -0.0078125 0.96875 -0.09375 C 0.757812 -0.1875 0.59375 -0.316406 0.46875 -0.484375 C 0.34375 -0.660156 0.28125 -0.867188 0.28125 -1.109375 L 1.109375 -1.109375 C 1.117188 -0.953125 1.171875 -0.828125 1.265625 -0.734375 C 1.367188 -0.640625 1.507812 -0.59375 1.6875 -0.59375 C 1.863281 -0.59375 2.003906 -0.632812 2.109375 -0.71875 C 2.210938 -0.8125 2.265625 -0.925781 2.265625 -1.0625 C 2.265625 -1.175781 2.226562 -1.269531 2.15625 -1.34375 C 2.09375 -1.414062 2.007812 -1.472656 1.90625 -1.515625 C 1.800781 -1.554688 1.65625 -1.601562 1.46875 -1.65625 C 1.21875 -1.726562 1.015625 -1.800781 0.859375 -1.875 C 0.703125 -1.945312 0.566406 -2.054688 0.453125 -2.203125 C 0.347656 -2.347656 0.296875 -2.539062 0.296875 -2.78125 C 0.296875 -3.007812 0.347656 -3.207031 0.453125 -3.375 C 0.566406 -3.539062 0.726562 -3.664062 0.9375 -3.75 C 1.144531 -3.84375 1.378906 -3.890625 1.640625 -3.890625 C 2.035156 -3.890625 2.359375 -3.789062 2.609375 -3.59375 C 2.859375 -3.40625 2.992188 -3.140625 3.015625 -2.796875 L 2.171875 -2.796875 C 2.160156 -2.929688 2.101562 -3.039062 2 -3.125 C 1.894531 -3.207031 1.757812 -3.25 1.59375 -3.25 C 1.4375 -3.25 1.3125 -3.210938 1.21875 -3.140625 C 1.132812 -3.066406 1.09375 -2.957031 1.09375 -2.8125 C 1.09375 -2.707031 1.125 -2.617188 1.1875 -2.546875 C 1.257812 -2.484375 1.34375 -2.429688 1.4375 -2.390625 C 1.539062 -2.347656 1.6875 -2.296875 1.875 -2.234375 C 2.125 -2.160156 2.328125 -2.085938 2.484375 -2.015625 C 2.640625 -1.941406 2.773438 -1.832031 2.890625 -1.6875 C 3.003906 -1.539062 3.0625 -1.347656 3.0625 -1.109375 C 3.0625 -0.898438 3.007812 -0.707031 2.90625 -0.53125 C 2.800781 -0.363281 2.644531 -0.226562 2.4375 -0.125 C 2.226562 -0.0195312 1.984375 0.03125 1.703125 0.03125 Z M 1.703125 0.03125 "/></g></g><g style="fill:#21302b;fill-opacity:1;"><g transform="translate(212.791661, 226.117554)"><path style="stroke:none" d="M 1.15625 -3.84375 L 1.15625 0 L 0.375 0 L 0.375 -3.84375 Z M 1.15625 -3.84375 "/></g></g><g style="fill:#21302b;fill-opacity:1;"><g transform="translate(216.960646, 226.117554)"><path style="stroke:none" d="M 1.15625 -0.609375 L 2.421875 -0.609375 L 2.421875 0 L 0.375 0 L 0.375 -3.84375 L 1.15625 -3.84375 Z M 1.15625 -0.609375 "/></g></g><g style="fill:#21302b;fill-opacity:1;"><g transform="translate(222.125131, 226.117554)"><path style="stroke:none" d="M 1.15625 -3.21875 L 1.15625 -2.25 L 2.4375 -2.25 L 2.4375 -1.640625 L 1.15625 -1.640625 L 1.15625 -0.625 L 2.609375 -0.625 L 2.609375 0 L 0.375 0 L 0.375 -3.84375 L 2.609375 -3.84375 L 2.609375 -3.21875 Z M 1.15625 -3.21875 "/></g></g><g style="fill:#21302b;fill-opacity:1;"><g transform="translate(227.691116, 226.117554)"><path style="stroke:none" d="M 1.15625 -3.84375 L 1.15625 0 L 0.375 0 L 0.375 -3.84375 Z M 1.15625 -3.84375 "/></g></g><g style="fill:#21302b;fill-opacity:1;"><g transform="translate(231.860102, 226.117554)"><path style="stroke:none" d="M 2.359375 0 L 1.515625 -1.5 L 1.15625 -1.5 L 1.15625 0 L 0.375 0 L 0.375 -3.84375 L 1.828125 -3.84375 C 2.117188 -3.84375 2.367188 -3.789062 2.578125 -3.6875 C 2.785156 -3.582031 2.941406 -3.4375 3.046875 -3.25 C 3.148438 -3.070312 3.203125 -2.875 3.203125 -2.65625 C 3.203125 -2.40625 3.128906 -2.175781 2.984375 -1.96875 C 2.835938 -1.769531 2.617188 -1.632812 2.328125 -1.5625 L 3.25 0 Z M 1.15625 -2.078125 L 1.796875 -2.078125 C 2.003906 -2.078125 2.160156 -2.125 2.265625 -2.21875 C 2.367188 -2.320312 2.421875 -2.460938 2.421875 -2.640625 C 2.421875 -2.816406 2.367188 -2.953125 2.265625 -3.046875 C 2.160156 -3.148438 2.003906 -3.203125 1.796875 -3.203125 L 1.15625 -3.203125 Z M 1.15625 -2.078125 "/></g></g><g style="fill:#21302b;fill-opacity:1;"><g transform="translate(238.025583, 226.117554)"><path style="stroke:none" d="M 2.734375 -0.734375 L 1.203125 -0.734375 L 0.953125 0 L 0.140625 0 L 1.53125 -3.84375 L 2.421875 -3.84375 L 3.796875 0 L 2.984375 0 Z M 2.53125 -1.34375 L 1.96875 -2.953125 L 1.40625 -1.34375 Z M 2.53125 -1.34375 "/></g></g><g style="fill:#21302b;fill-opacity:1;"><g transform="translate(244.604328, 226.117554)"><path style="stroke:none" d=""/></g></g><g style="fill:#21302b;fill-opacity:1;"><g transform="translate(115.756162, 233.450842)"><path style="stroke:none" d="M 1.78125 -3.859375 C 2.1875 -3.859375 2.539062 -3.773438 2.84375 -3.609375 C 3.15625 -3.453125 3.394531 -3.226562 3.5625 -2.9375 C 3.726562 -2.644531 3.8125 -2.3125 3.8125 -1.9375 C 3.8125 -1.550781 3.726562 -1.210938 3.5625 -0.921875 C 3.394531 -0.628906 3.15625 -0.398438 2.84375 -0.234375 C 2.539062 -0.078125 2.1875 0 1.78125 0 L 0.34375 0 L 0.34375 -3.859375 Z M 1.734375 -0.8125 C 2.085938 -0.8125 2.363281 -0.90625 2.5625 -1.09375 C 2.757812 -1.289062 2.859375 -1.570312 2.859375 -1.9375 C 2.859375 -2.289062 2.757812 -2.566406 2.5625 -2.765625 C 2.363281 -2.960938 2.085938 -3.0625 1.734375 -3.0625 L 1.28125 -3.0625 L 1.28125 -0.8125 Z M 1.734375 -0.8125 "/></g></g><g style="fill:#21302b;fill-opacity:1;"><g transform="translate(122.394646, 233.450842)"><path style="stroke:none" d="M 1.28125 -3.109375 L 1.28125 -2.328125 L 2.546875 -2.328125 L 2.546875 -1.59375 L 1.28125 -1.59375 L 1.28125 -0.75 L 2.703125 -0.75 L 2.703125 0 L 0.34375 0 L 0.34375 -3.859375 L 2.703125 -3.859375 L 2.703125 -3.109375 Z M 1.28125 -3.109375 "/></g></g><g style="fill:#21302b;fill-opacity:1;"><g transform="translate(128.010132, 233.450842)"><path style="stroke:none" d=""/></g></g><g style="fill:#21302b;fill-opacity:1;"><g transform="translate(131.819214, 233.450842)"><path style="stroke:none" d="M 1.6875 -3.859375 L 1 0 L 0.0625 0 L 0.75 -3.859375 Z M 1.6875 -3.859375 "/></g></g><g style="fill:#21302b;fill-opacity:1;"><g transform="translate(136.081696, 233.450842)"><path style="stroke:none" d="M 3.515625 0 L 2.578125 0 L 1.421875 -2.375 L 1 0 L 0.0625 0 L 0.75 -3.859375 L 1.6875 -3.859375 L 2.828125 -1.46875 L 3.25 -3.859375 L 4.203125 -3.859375 Z M 3.515625 0 "/></g></g><g style="fill:#21302b;fill-opacity:1;"><g transform="translate(142.857681, 233.450842)"><path style="stroke:none" d="M 3.515625 -3.859375 L 3.390625 -3.125 L 2.359375 -3.125 L 1.8125 0 L 0.875 0 L 1.421875 -3.125 L 0.40625 -3.125 L 0.53125 -3.859375 Z M 3.515625 -3.859375 "/></g></g><g style="fill:#21302b;fill-opacity:1;"><g transform="translate(148.748168, 233.450842)"><path style="stroke:none" d="M 1.546875 -3.125 L 1.40625 -2.3125 L 2.671875 -2.3125 L 2.546875 -1.609375 L 1.28125 -1.609375 L 1.140625 -0.75 L 2.5625 -0.75 L 2.421875 0 L 0.0625 0 L 0.75 -3.859375 L 3.109375 -3.859375 L 2.96875 -3.125 Z M 1.546875 -3.125 "/></g></g><g style="fill:#21302b;fill-opacity:1;"><g transform="translate(154.363654, 233.450842)"><path style="stroke:none" d="M 1.125 -0.71875 L 2.359375 -0.71875 L 2.234375 0 L 0.0625 0 L 0.75 -3.859375 L 1.6875 -3.859375 Z M 1.125 -0.71875 "/></g></g><g style="fill:#21302b;fill-opacity:1;"><g transform="translate(159.62714, 233.450842)"><path style="stroke:none" d="M 1.6875 -3.859375 L 1 0 L 0.0625 0 L 0.75 -3.859375 Z M 1.6875 -3.859375 "/></g></g><g style="fill:#21302b;fill-opacity:1;"><g transform="translate(163.889622, 233.450842)"><path style="stroke:none" d="M 0.25 -1.9375 C 0.3125 -2.320312 0.453125 -2.660156 0.671875 -2.953125 C 0.890625 -3.253906 1.160156 -3.488281 1.484375 -3.65625 C 1.816406 -3.820312 2.171875 -3.90625 2.546875 -3.90625 C 3.015625 -3.90625 3.390625 -3.789062 3.671875 -3.5625 C 3.953125 -3.34375 4.101562 -3.035156 4.125 -2.640625 L 3.09375 -2.640625 C 3.039062 -2.765625 2.953125 -2.859375 2.828125 -2.921875 C 2.710938 -2.992188 2.570312 -3.03125 2.40625 -3.03125 C 2.101562 -3.03125 1.84375 -2.929688 1.625 -2.734375 C 1.40625 -2.535156 1.265625 -2.269531 1.203125 -1.9375 C 1.179688 -1.820312 1.171875 -1.726562 1.171875 -1.65625 C 1.171875 -1.382812 1.25 -1.171875 1.40625 -1.015625 C 1.570312 -0.867188 1.796875 -0.796875 2.078125 -0.796875 C 2.316406 -0.796875 2.523438 -0.851562 2.703125 -0.96875 C 2.878906 -1.09375 3.023438 -1.265625 3.140625 -1.484375 L 1.953125 -1.484375 L 2.0625 -2.171875 L 4.109375 -2.171875 L 3.953125 -1.296875 C 3.847656 -1.066406 3.691406 -0.847656 3.484375 -0.640625 C 3.285156 -0.441406 3.046875 -0.28125 2.765625 -0.15625 C 2.484375 -0.03125 2.179688 0.03125 1.859375 0.03125 C 1.523438 0.03125 1.234375 -0.03125 0.984375 -0.15625 C 0.734375 -0.289062 0.539062 -0.472656 0.40625 -0.703125 C 0.269531 -0.941406 0.203125 -1.21875 0.203125 -1.53125 C 0.203125 -1.632812 0.21875 -1.769531 0.25 -1.9375 Z M 0.25 -1.9375 "/></g></g><g style="fill:#21302b;fill-opacity:1;"><g transform="translate(170.720604, 233.450842)"><path style="stroke:none" d="M 1.546875 -3.125 L 1.40625 -2.3125 L 2.671875 -2.3125 L 2.546875 -1.609375 L 1.28125 -1.609375 L 1.140625 -0.75 L 2.5625 -0.75 L 2.421875 0 L 0.0625 0 L 0.75 -3.859375 L 3.109375 -3.859375 L 2.96875 -3.125 Z M 2.03125 -4.546875 L 1.09375 -4.0625 L 1.203125 -4.71875 L 2.140625 -5.171875 L 2.90625 -4.71875 L 2.796875 -4.0625 Z M 2.03125 -4.546875 "/></g></g><g style="fill:#21302b;fill-opacity:1;"><g transform="translate(176.33609, 233.450842)"><path style="stroke:none" d="M 3.515625 0 L 2.578125 0 L 1.421875 -2.375 L 1 0 L 0.0625 0 L 0.75 -3.859375 L 1.6875 -3.859375 L 2.828125 -1.46875 L 3.25 -3.859375 L 4.203125 -3.859375 Z M 3.515625 0 "/></g></g><g style="fill:#21302b;fill-opacity:1;"><g transform="translate(183.112075, 233.450842)"><path style="stroke:none" d="M 0.25 -1.9375 C 0.3125 -2.320312 0.453125 -2.660156 0.671875 -2.953125 C 0.890625 -3.253906 1.160156 -3.488281 1.484375 -3.65625 C 1.804688 -3.820312 2.15625 -3.90625 2.53125 -3.90625 C 2.988281 -3.90625 3.359375 -3.78125 3.640625 -3.53125 C 3.921875 -3.289062 4.082031 -2.960938 4.125 -2.546875 L 3.09375 -2.546875 C 3.039062 -2.703125 2.953125 -2.820312 2.828125 -2.90625 C 2.703125 -2.988281 2.546875 -3.03125 2.359375 -3.03125 C 2.078125 -3.03125 1.828125 -2.929688 1.609375 -2.734375 C 1.398438 -2.535156 1.265625 -2.269531 1.203125 -1.9375 C 1.179688 -1.832031 1.171875 -1.742188 1.171875 -1.671875 C 1.171875 -1.410156 1.242188 -1.203125 1.390625 -1.046875 C 1.535156 -0.898438 1.734375 -0.828125 1.984375 -0.828125 C 2.160156 -0.828125 2.328125 -0.867188 2.484375 -0.953125 C 2.640625 -1.035156 2.769531 -1.15625 2.875 -1.3125 L 3.90625 -1.3125 C 3.726562 -0.894531 3.453125 -0.566406 3.078125 -0.328125 C 2.710938 -0.0859375 2.300781 0.03125 1.84375 0.03125 C 1.507812 0.03125 1.21875 -0.03125 0.96875 -0.15625 C 0.726562 -0.289062 0.539062 -0.472656 0.40625 -0.703125 C 0.269531 -0.941406 0.203125 -1.21875 0.203125 -1.53125 C 0.203125 -1.664062 0.21875 -1.800781 0.25 -1.9375 Z M 0.25 -1.9375 "/></g></g><g style="fill:#21302b;fill-opacity:1;"><g transform="translate(189.943057, 233.450842)"><path style="stroke:none" d="M 1.6875 -3.859375 L 1 0 L 0.0625 0 L 0.75 -3.859375 Z M 1.6875 -3.859375 "/></g></g><g style="fill:#21302b;fill-opacity:1;"><g transform="translate(194.205539, 233.450842)"><path style="stroke:none" d="M 2.578125 -0.6875 L 1.140625 -0.6875 L 0.796875 0 L -0.1875 0 L 1.890625 -3.859375 L 2.96875 -3.859375 L 3.6875 0 L 2.6875 0 Z M 2.46875 -1.390625 L 2.25 -2.828125 L 1.515625 -1.390625 Z M 2.46875 -1.390625 "/></g></g><g style="fill:#21302b;fill-opacity:1;"><g transform="translate(200.899021, 233.450842)"><path style="stroke:none" d=""/></g></g><g style="fill:#21302b;fill-opacity:1;"><g transform="translate(204.809502, 233.450842)"><path style="stroke:none" d="M 1.546875 -3.125 L 1.40625 -2.3125 L 2.671875 -2.3125 L 2.546875 -1.609375 L 1.28125 -1.609375 L 1.140625 -0.75 L 2.5625 -0.75 L 2.421875 0 L 0.0625 0 L 0.75 -3.859375 L 3.109375 -3.859375 L 2.96875 -3.125 Z M 1.546875 -3.125 "/></g></g><g style="fill:#21302b;fill-opacity:1;"><g transform="translate(210.424988, 233.450842)"><path style="stroke:none" d="M 5.109375 -3.859375 L 4.4375 0 L 3.5 0 L 3.90625 -2.3125 L 2.625 0 L 1.875 0 L 1.40625 -2.328125 L 1 0 L 0.0625 0 L 0.75 -3.859375 L 1.859375 -3.859375 L 2.46875 -1.1875 L 4.015625 -3.859375 Z M 5.109375 -3.859375 "/></g></g><g style="fill:#21302b;fill-opacity:1;"><g transform="translate(218.113977, 233.450842)"><path style="stroke:none" d="M 1.890625 0.03125 C 1.566406 0.03125 1.28125 -0.0351562 1.03125 -0.171875 C 0.789062 -0.304688 0.601562 -0.492188 0.46875 -0.734375 C 0.332031 -0.984375 0.265625 -1.265625 0.265625 -1.578125 C 0.265625 -2.035156 0.359375 -2.441406 0.546875 -2.796875 C 0.742188 -3.148438 1.015625 -3.425781 1.359375 -3.625 C 1.703125 -3.820312 2.097656 -3.921875 2.546875 -3.921875 C 2.867188 -3.921875 3.15625 -3.851562 3.40625 -3.71875 C 3.65625 -3.582031 3.847656 -3.390625 3.984375 -3.140625 C 4.117188 -2.898438 4.1875 -2.625 4.1875 -2.3125 C 4.1875 -1.863281 4.085938 -1.457031 3.890625 -1.09375 C 3.703125 -0.738281 3.429688 -0.460938 3.078125 -0.265625 C 2.734375 -0.0664062 2.335938 0.03125 1.890625 0.03125 Z M 2.046875 -0.828125 C 2.285156 -0.828125 2.492188 -0.890625 2.671875 -1.015625 C 2.859375 -1.140625 3 -1.304688 3.09375 -1.515625 C 3.195312 -1.734375 3.25 -1.960938 3.25 -2.203125 C 3.25 -2.460938 3.175781 -2.664062 3.03125 -2.8125 C 2.882812 -2.96875 2.679688 -3.046875 2.421875 -3.046875 C 2.179688 -3.046875 1.96875 -2.984375 1.78125 -2.859375 C 1.59375 -2.734375 1.445312 -2.566406 1.34375 -2.359375 C 1.25 -2.160156 1.203125 -1.9375 1.203125 -1.6875 C 1.203125 -1.414062 1.273438 -1.203125 1.421875 -1.046875 C 1.566406 -0.898438 1.773438 -0.828125 2.046875 -0.828125 Z M 2.046875 -0.828125 "/></g></g><g style="fill:#21302b;fill-opacity:1;"><g transform="translate(225.076962, 233.450842)"><path style="stroke:none" d="M 0.25 -1.9375 C 0.3125 -2.320312 0.453125 -2.660156 0.671875 -2.953125 C 0.890625 -3.253906 1.160156 -3.488281 1.484375 -3.65625 C 1.804688 -3.820312 2.15625 -3.90625 2.53125 -3.90625 C 2.988281 -3.90625 3.359375 -3.78125 3.640625 -3.53125 C 3.921875 -3.289062 4.082031 -2.960938 4.125 -2.546875 L 3.09375 -2.546875 C 3.039062 -2.703125 2.953125 -2.820312 2.828125 -2.90625 C 2.703125 -2.988281 2.546875 -3.03125 2.359375 -3.03125 C 2.078125 -3.03125 1.828125 -2.929688 1.609375 -2.734375 C 1.398438 -2.535156 1.265625 -2.269531 1.203125 -1.9375 C 1.179688 -1.832031 1.171875 -1.742188 1.171875 -1.671875 C 1.171875 -1.410156 1.242188 -1.203125 1.390625 -1.046875 C 1.535156 -0.898438 1.734375 -0.828125 1.984375 -0.828125 C 2.160156 -0.828125 2.328125 -0.867188 2.484375 -0.953125 C 2.640625 -1.035156 2.769531 -1.15625 2.875 -1.3125 L 3.90625 -1.3125 C 3.726562 -0.894531 3.453125 -0.566406 3.078125 -0.328125 C 2.710938 -0.0859375 2.300781 0.03125 1.84375 0.03125 C 1.507812 0.03125 1.21875 -0.03125 0.96875 -0.15625 C 0.726562 -0.289062 0.539062 -0.472656 0.40625 -0.703125 C 0.269531 -0.941406 0.203125 -1.21875 0.203125 -1.53125 C 0.203125 -1.664062 0.21875 -1.800781 0.25 -1.9375 Z M 0.25 -1.9375 "/></g></g><g style="fill:#21302b;fill-opacity:1;"><g transform="translate(231.907944, 233.450842)"><path style="stroke:none" d="M 1.6875 -3.859375 L 1 0 L 0.0625 0 L 0.75 -3.859375 Z M 1.6875 -3.859375 "/></g></g><g style="fill:#21302b;fill-opacity:1;"><g transform="translate(236.170427, 233.450842)"><path style="stroke:none" d="M 1.890625 0.03125 C 1.566406 0.03125 1.28125 -0.0351562 1.03125 -0.171875 C 0.789062 -0.304688 0.601562 -0.492188 0.46875 -0.734375 C 0.332031 -0.984375 0.265625 -1.265625 0.265625 -1.578125 C 0.265625 -2.035156 0.359375 -2.441406 0.546875 -2.796875 C 0.742188 -3.148438 1.015625 -3.425781 1.359375 -3.625 C 1.703125 -3.820312 2.097656 -3.921875 2.546875 -3.921875 C 2.867188 -3.921875 3.15625 -3.851562 3.40625 -3.71875 C 3.65625 -3.582031 3.847656 -3.390625 3.984375 -3.140625 C 4.117188 -2.898438 4.1875 -2.625 4.1875 -2.3125 C 4.1875 -1.863281 4.085938 -1.457031 3.890625 -1.09375 C 3.703125 -0.738281 3.429688 -0.460938 3.078125 -0.265625 C 2.734375 -0.0664062 2.335938 0.03125 1.890625 0.03125 Z M 2.046875 -0.828125 C 2.285156 -0.828125 2.492188 -0.890625 2.671875 -1.015625 C 2.859375 -1.140625 3 -1.304688 3.09375 -1.515625 C 3.195312 -1.734375 3.25 -1.960938 3.25 -2.203125 C 3.25 -2.460938 3.175781 -2.664062 3.03125 -2.8125 C 2.882812 -2.96875 2.679688 -3.046875 2.421875 -3.046875 C 2.179688 -3.046875 1.96875 -2.984375 1.78125 -2.859375 C 1.59375 -2.734375 1.445312 -2.566406 1.34375 -2.359375 C 1.25 -2.160156 1.203125 -1.9375 1.203125 -1.6875 C 1.203125 -1.414062 1.273438 -1.203125 1.421875 -1.046875 C 1.566406 -0.898438 1.773438 -0.828125 2.046875 -0.828125 Z M 2.046875 -0.828125 "/></g></g><g style="fill:#21302b;fill-opacity:1;"><g transform="translate(243.133412, 233.450842)"><path style="stroke:none" d="M 3.515625 0 L 2.578125 0 L 1.421875 -2.375 L 1 0 L 0.0625 0 L 0.75 -3.859375 L 1.6875 -3.859375 L 2.828125 -1.46875 L 3.25 -3.859375 L 4.203125 -3.859375 Z M 3.515625 0 "/></g></g><g style="fill:#21302b;fill-opacity:1;"><g transform="translate(249.909397, 233.450842)"><path style="stroke:none" d="M 2.578125 -0.6875 L 1.140625 -0.6875 L 0.796875 0 L -0.1875 0 L 1.890625 -3.859375 L 2.96875 -3.859375 L 3.6875 0 L 2.6875 0 Z M 2.46875 -1.390625 L 2.25 -2.828125 L 1.515625 -1.390625 Z M 2.46875 -1.390625 "/></g></g><g style="fill:#21302b;fill-opacity:1;"><g transform="translate(256.602886, 233.450842)"><path style="stroke:none" d="M 1.125 -0.71875 L 2.359375 -0.71875 L 2.234375 0 L 0.0625 0 L 0.75 -3.859375 L 1.6875 -3.859375 Z M 1.125 -0.71875 "/></g></g><g style="fill:#264239;fill-opacity:1;"><g transform="translate(124.290427, 210.465509)"><path style="stroke:none" d="M 16.25 1.234375 C 13.738281 1.234375 11.175781 0.921875 8.5625 0.296875 C 5.957031 -0.316406 3.789062 -1.125 2.0625 -2.125 L 2.40625 -11.453125 L 3.09375 -11.453125 L 5.21875 -7 C 5.851562 -5.71875 6.535156 -4.582031 7.265625 -3.59375 C 7.992188 -2.613281 9 -1.847656 10.28125 -1.296875 C 11.195312 -0.847656 12.078125 -0.539062 12.921875 -0.375 C 13.773438 -0.21875 14.722656 -0.140625 15.765625 -0.140625 C 18.554688 -0.140625 20.765625 -0.890625 22.390625 -2.390625 C 24.015625 -3.898438 24.828125 -5.847656 24.828125 -8.234375 C 24.828125 -10.472656 24.273438 -12.21875 23.171875 -13.46875 C 22.078125 -14.726562 20.320312 -15.953125 17.90625 -17.140625 L 15.09375 -18.375 C 11.15625 -20.113281 8.078125 -22.113281 5.859375 -24.375 C 3.640625 -26.644531 2.53125 -29.648438 2.53125 -33.390625 C 2.53125 -36.085938 3.226562 -38.421875 4.625 -40.390625 C 6.019531 -42.359375 7.960938 -43.867188 10.453125 -44.921875 C 12.953125 -45.972656 15.867188 -46.5 19.203125 -46.5 C 21.628906 -46.5 23.925781 -46.175781 26.09375 -45.53125 C 28.257812 -44.894531 30.144531 -44.03125 31.75 -42.9375 L 31.34375 -34.703125 L 30.65625 -34.703125 L 27.84375 -39.84375 C 27.0625 -41.445312 26.28125 -42.578125 25.5 -43.234375 C 24.726562 -43.898438 23.84375 -44.367188 22.84375 -44.640625 C 22.238281 -44.828125 21.6875 -44.953125 21.1875 -45.015625 C 20.6875 -45.085938 20.046875 -45.125 19.265625 -45.125 C 16.929688 -45.125 14.960938 -44.445312 13.359375 -43.09375 C 11.765625 -41.75 10.96875 -39.9375 10.96875 -37.65625 C 10.96875 -35.320312 11.582031 -33.457031 12.8125 -32.0625 C 14.050781 -30.664062 15.859375 -29.421875 18.234375 -28.328125 L 21.390625 -26.953125 C 25.785156 -25.035156 28.941406 -22.988281 30.859375 -20.8125 C 32.773438 -18.644531 33.734375 -15.84375 33.734375 -12.40625 C 33.734375 -8.382812 32.210938 -5.101562 29.171875 -2.5625 C 26.140625 -0.03125 21.832031 1.234375 16.25 1.234375 Z M 16.25 1.234375 "/></g></g><g style="fill:#264239;fill-opacity:1;"><g transform="translate(157.003036, 210.465509)"><path style="stroke:none" d="M 1.515625 0 L 1.515625 -0.6875 L 2.75 -1.171875 C 3.65625 -1.535156 4.28125 -1.988281 4.625 -2.53125 C 4.96875 -3.082031 5.140625 -3.816406 5.140625 -4.734375 L 5.140625 -40.53125 C 5.140625 -41.488281 4.96875 -42.238281 4.625 -42.78125 C 4.28125 -43.332031 3.65625 -43.769531 2.75 -44.09375 L 1.515625 -44.578125 L 1.515625 -45.265625 L 21.1875 -45.265625 C 26.769531 -45.265625 30.796875 -44.242188 33.265625 -42.203125 C 35.734375 -40.171875 36.96875 -37.601562 36.96875 -34.5 C 36.96875 -32.164062 36.0625 -30.050781 34.25 -28.15625 C 32.445312 -26.257812 29.351562 -24.921875 24.96875 -24.140625 C 29.988281 -23.585938 33.664062 -22.269531 36 -20.1875 C 38.332031 -18.113281 39.5 -15.59375 39.5 -12.625 C 39.5 -11.15625 39.175781 -9.675781 38.53125 -8.1875 C 37.894531 -6.707031 36.8125 -5.347656 35.28125 -4.109375 C 33.75 -2.878906 31.65625 -1.882812 29 -1.125 C 26.351562 -0.375 22.992188 0 18.921875 0 Z M 15.296875 -24.203125 L 18.234375 -24.203125 C 21.304688 -24.203125 23.515625 -24.910156 24.859375 -26.328125 C 26.203125 -27.742188 26.875 -30.210938 26.875 -33.734375 C 26.875 -37.398438 26.253906 -40.007812 25.015625 -41.5625 C 23.785156 -43.113281 21.78125 -43.890625 19 -43.890625 L 15.296875 -43.890625 Z M 15.296875 -1.375 L 18.71875 -1.375 C 22.144531 -1.375 24.691406 -2.285156 26.359375 -4.109375 C 28.035156 -5.941406 28.875 -8.800781 28.875 -12.6875 C 28.875 -16.34375 28.070312 -18.945312 26.46875 -20.5 C 24.875 -22.0625 22.242188 -22.84375 18.578125 -22.84375 L 15.296875 -22.84375 Z M 15.296875 -1.375 "/></g></g><g style="fill:#264239;fill-opacity:1;"><g transform="translate(194.996368, 210.465509)"><path style="stroke:none" d="M 1.515625 0 L 1.515625 -0.6875 L 2.875 -1.234375 C 3.789062 -1.554688 4.394531 -1.988281 4.6875 -2.53125 C 4.988281 -3.082031 5.140625 -3.816406 5.140625 -4.734375 L 5.140625 -40.53125 C 5.140625 -41.445312 5.003906 -42.175781 4.734375 -42.71875 C 4.460938 -43.269531 3.84375 -43.707031 2.875 -44.03125 L 1.515625 -44.578125 L 1.515625 -45.265625 L 19.140625 -45.265625 L 19.140625 -44.578125 L 17.765625 -44.03125 C 16.847656 -43.707031 16.238281 -43.269531 15.9375 -42.71875 C 15.644531 -42.175781 15.5 -41.445312 15.5 -40.53125 L 15.5 -4.734375 C 15.5 -3.816406 15.644531 -3.09375 15.9375 -2.5625 C 16.238281 -2.039062 16.847656 -1.597656 17.765625 -1.234375 L 19.140625 -0.6875 L 19.140625 0 Z M 1.515625 0 "/></g></g><g style="fill:#264239;fill-opacity:1;"><g transform="translate(212.621208, 210.465509)"><path style="stroke:none" d="M 1.515625 0 L 1.515625 -0.6875 L 3.09375 -1.296875 C 3.863281 -1.617188 4.394531 -2.039062 4.6875 -2.5625 C 4.988281 -3.09375 5.140625 -3.816406 5.140625 -4.734375 L 5.140625 -40.53125 C 5.140625 -41.445312 5.015625 -42.164062 4.765625 -42.6875 C 4.515625 -43.21875 3.957031 -43.640625 3.09375 -43.953125 L 1.515625 -44.578125 L 1.515625 -45.265625 L 34.359375 -45.265625 L 34.765625 -34.703125 L 34.078125 -34.703125 L 31.140625 -41.140625 C 30.722656 -41.960938 30.285156 -42.625 29.828125 -43.125 C 29.367188 -43.632812 28.6875 -43.890625 27.78125 -43.890625 L 15.4375 -43.890625 L 15.4375 -24.078125 L 22.765625 -24.078125 C 23.679688 -24.078125 24.378906 -24.316406 24.859375 -24.796875 C 25.335938 -25.273438 25.757812 -25.925781 26.125 -26.75 L 27.5 -29.484375 L 28.1875 -29.484375 L 28.1875 -17.140625 L 27.5 -17.140625 L 26.125 -20.03125 C 25.71875 -20.851562 25.285156 -21.503906 24.828125 -21.984375 C 24.367188 -22.460938 23.679688 -22.703125 22.765625 -22.703125 L 15.4375 -22.703125 L 15.4375 -1.375 L 29.28125 -1.375 C 30.195312 -1.375 30.90625 -1.613281 31.40625 -2.09375 C 31.90625 -2.570312 32.316406 -3.242188 32.640625 -4.109375 L 35.453125 -10.5625 L 36.140625 -10.5625 L 35.734375 0 Z M 1.515625 0 "/></g></g></g></svg>